<mxfile host="app.diagrams.net" modified="2020-08-28T20:52:12.795Z" agent="5.0 (X11)" etag="EAJciGDMs9m3yuqKAsIO" version="13.6.5" type="github">
  <diagram id="bMF77L84sKGF2cYCscbc" name="Page-1">
    <mxGraphModel dx="868" dy="494" grid="1" gridSize="10" guides="1" tooltips="1" connect="1" arrows="1" fold="1" page="1" pageScale="1" pageWidth="850" pageHeight="1100" math="0" shadow="0">
      <root>
        <mxCell id="0" />
        <mxCell id="1" parent="0" />
      </root>
    </mxGraphModel>
  </diagram>
</mxfile>
